<svg width="23" height="23" viewBox="0 0 23 23" fill="none" xmlns="http://www.w3.org/2000/svg">
<path d="M12.2217 0H10.7782C9.61077 0 8.66089 0.949827 8.66089 2.1173V2.60565C8.16455 2.76422 7.68231 2.96439 7.21904 3.20414L6.87296 2.85806C6.03476 2.01883 4.69209 2.04345 3.87824 2.85838L2.85802 3.87856C2.04273 4.69294 2.01928 6.03516 2.85829 6.87327L3.2041 7.21908C2.96435 7.68236 2.76422 8.16451 2.6056 8.66094H2.1173C0.949873 8.66094 0 9.61077 0 10.7782V12.2218C0 13.3892 0.949873 14.3391 2.11735 14.3391H2.60565C2.76427 14.8354 2.96439 15.3176 3.20414 15.7809L2.85806 16.127C2.01955 16.9646 2.04269 18.3069 2.85833 19.1217L3.87864 20.1419C4.69438 20.9588 6.03674 20.9792 6.87332 20.1417L7.21908 19.7959C7.68236 20.0356 8.1646 20.2358 8.66094 20.3944V20.8827C8.66094 22.0502 9.61077 23 10.7783 23H12.2218C13.3892 23 14.3391 22.0502 14.3391 20.8827V20.3944C14.8354 20.2358 15.3176 20.0356 15.7809 19.7959L16.127 20.1419C16.9652 20.9812 18.3079 20.9565 19.1217 20.1416L20.1419 19.1214C20.9572 18.3071 20.9807 16.9648 20.1417 16.1267L19.7959 15.7809C20.0356 15.3176 20.2357 14.8355 20.3944 14.3391H20.8827C22.0501 14.3391 23 13.3892 23 12.2218V10.7782C23 9.61077 22.0501 8.66094 20.8827 8.66094H20.3944C20.2357 8.16455 20.0356 7.68236 19.7959 7.21908L20.1419 6.873C20.9804 6.03539 20.9573 4.69303 20.1417 3.87829L19.1214 2.85802C18.3056 2.04116 16.9633 2.02077 16.1267 2.85829L15.7809 3.20405C15.3176 2.96435 14.8354 2.76418 14.3391 2.60556V2.11721C14.3391 0.949829 13.3892 0 12.2217 0ZM7.44432 4.61932C8.08791 4.23869 8.78061 3.95115 9.50313 3.76468C9.8007 3.68791 10.0086 3.41954 10.0086 3.11223V2.1173C10.0086 1.69293 10.3539 1.34766 10.7783 1.34766H12.2218C12.6461 1.34766 12.9915 1.69293 12.9915 2.1173V3.11223C12.9915 3.41954 13.1993 3.68791 13.4969 3.76468C14.2194 3.95115 14.9121 4.23869 15.5557 4.61932C15.8205 4.77591 16.1577 4.73333 16.3752 4.51577L17.08 3.81099C17.3838 3.50678 17.8718 3.51383 18.1682 3.81068L19.1891 4.83157C19.4848 5.12689 19.4947 5.61492 19.1894 5.91981L18.4843 6.62485C18.2668 6.84237 18.2242 7.17955 18.3808 7.44432C18.7614 8.08787 19.0489 8.78056 19.2354 9.50313C19.3122 9.8007 19.5805 10.0085 19.8878 10.0085H20.8827C21.3071 10.0085 21.6524 10.3538 21.6524 10.7782V12.2217C21.6524 12.6461 21.3071 12.9914 20.8827 12.9914H19.8878C19.5805 12.9914 19.3122 13.1993 19.2354 13.4968C19.0489 14.2193 18.7614 14.912 18.3808 15.5556C18.2242 15.8204 18.2668 16.1575 18.4843 16.3751L19.1891 17.0798C19.4938 17.3841 19.4858 17.872 19.1894 18.1681L18.1685 19.1889C17.8726 19.4852 17.3846 19.4939 17.0803 19.1892L16.3753 18.4841C16.1578 18.2666 15.8205 18.224 15.5558 18.3806C14.9122 18.7612 14.2195 19.0488 13.497 19.2352C13.1994 19.312 12.9915 19.5804 12.9915 19.8877V20.8827C12.9915 21.3071 12.6462 21.6523 12.2218 21.6523H10.7783C10.354 21.6523 10.0086 21.3071 10.0086 20.8827V19.8878C10.0086 19.5805 9.80074 19.3121 9.50318 19.2353C8.78065 19.0489 8.08796 18.7613 7.44436 18.3807C7.1795 18.2241 6.84237 18.2667 6.62485 18.4842L5.92012 19.189C5.61627 19.4932 5.12828 19.4862 4.83193 19.1893L3.81099 18.1684C3.51532 17.8731 3.50543 17.3851 3.81072 17.0802L4.51577 16.3751C4.73328 16.1576 4.77587 15.8205 4.61932 15.5557C4.23869 14.9121 3.95119 14.2194 3.76472 13.4969C3.68791 13.1993 3.41954 12.9915 3.11228 12.9915H2.11735C1.69297 12.9914 1.34766 12.6461 1.34766 12.2218V10.7782C1.34766 10.3539 1.69297 10.0086 2.11735 10.0086H3.11223C3.41954 10.0086 3.68786 9.8007 3.76468 9.50318C3.95115 8.78061 4.23869 8.08791 4.61927 7.44436C4.77582 7.17959 4.73324 6.84241 4.51573 6.6249L3.81095 5.92012C3.50629 5.61582 3.51424 5.12797 3.81068 4.83189L4.83153 3.81104C5.12743 3.51473 5.61546 3.50606 5.91976 3.81077L6.62476 4.51582C6.78505 4.67605 7.1185 4.81203 7.44432 4.61932Z" fill="#333333"/>
<path d="M11.5004 6.4958C8.74097 6.4958 6.49609 8.74073 6.49609 11.5001C6.49609 14.2595 8.74097 16.5044 11.5004 16.5044C14.2598 16.5044 16.5047 14.2595 16.5047 11.5001C16.5047 8.74073 14.2598 6.4958 11.5004 6.4958ZM11.5004 15.1567C9.48407 15.1567 7.84375 13.5164 7.84375 11.5001C7.84375 9.48383 9.48412 7.84346 11.5004 7.84346C13.5167 7.84346 15.157 9.48383 15.157 11.5001C15.157 13.5164 13.5167 15.1567 11.5004 15.1567Z" fill="#333333"/>
</svg>
