<svg width="23" height="23" viewBox="0 0 23 23" fill="none" xmlns="http://www.w3.org/2000/svg">
<g clip-path="url(#clip0)">
<path d="M21.1478 10.038L11.9153 3.07583C11.6696 2.89041 11.3305 2.89041 11.0848 3.07583L1.85236 10.038C1.67956 10.1683 1.57788 10.3722 1.57788 10.5886V22.3104C1.57788 22.6913 1.88665 23.0001 2.26753 23.0001H20.7326C21.1135 23.0001 21.4222 22.6913 21.4222 22.3104V10.5886C21.4222 10.3722 21.3207 10.1683 21.1478 10.038ZM20.0429 21.6207H2.95719V10.9323L11.5 4.49031L20.0428 10.9323V21.6207H20.0429Z" fill="#333333"/>
<path d="M2.6828 8.20235L11.5001 1.55342L20.3174 8.20235C20.4417 8.29615 20.5875 8.34147 20.7321 8.34147C20.9411 8.34147 21.1476 8.24679 21.2832 8.06699C21.5126 7.76295 21.4519 7.33044 21.1477 7.10118L11.9153 0.138941C11.6696 -0.0464765 11.3305 -0.0464765 11.0848 0.138941L1.85236 7.10108C1.54822 7.33044 1.48763 7.76285 1.71689 8.06689C1.94615 8.37102 2.37856 8.43161 2.6828 8.20235Z" fill="#333333"/>
</g>
<defs>
<clipPath id="clip0">
<rect width="23" height="23" fill="white"/>
</clipPath>
</defs>
</svg>
