<svg width="113" height="16" viewBox="0 0 113 16" fill="none" xmlns="http://www.w3.org/2000/svg">
<path d="M8.25414 15.8237L3.56034 3.56595H3.44033C3.60924 6.05951 3.6937 7.7231 3.6937 8.5567V15.8237H0V0.199618H5.62722L10.241 12.1474H10.321L15.2148 0.199618H20.842V15.8237H16.9883V8.42845C16.9883 8.07936 16.9928 7.67681 17.0017 7.2208C17.0194 6.76485 17.0817 5.55371 17.1883 3.58733H17.0684L12.0412 15.8237H8.25414ZM38.5163 15.8237L37.1028 12.1047H29.9954L28.582 15.8237H24.1282L31.0089 0.135498H36.0627L42.97 15.8237H38.5163ZM36.1161 9.32612C34.8092 5.9562 34.0714 4.05042 33.9025 3.6087C33.7425 3.16698 33.6269 2.81788 33.5558 2.5614C33.2624 3.47334 32.4223 5.72825 31.0356 9.32612H36.1161ZM50.39 7.13534H51.7234C53.0302 7.13534 53.9947 6.96079 54.617 6.6117C55.2394 6.26256 55.5505 5.71397 55.5505 4.96592C55.5505 4.22497 55.2304 3.69775 54.5903 3.38427C53.9592 3.0708 52.9769 2.91406 51.6434 2.91406H50.39V7.13534ZM50.39 9.82842V15.8237H46.2562V0.199618H51.9368C54.5859 0.199618 56.5461 0.587906 57.8174 1.36448C59.0886 2.13392 59.7242 3.30591 59.7242 4.88042C59.7242 5.79949 59.4086 6.61881 58.7775 7.33839C58.1463 8.05085 57.2529 8.6101 56.0972 9.01621C59.0308 12.5286 60.9421 14.7977 61.8311 15.8237H57.244L52.5902 9.82842H50.39ZM80.7852 15.8237H76.0915L70.9846 9.24065L69.2375 10.2452V15.8237H65.104V0.199618H69.2375V7.34906L70.8644 5.51092L76.1447 0.199618H80.732L73.9313 7.11394L80.7852 15.8237ZM95.2858 15.8237H84.0583V0.199618H95.2858V2.91406H88.1922V6.34452H94.7929V9.05894H88.1922V13.0879H95.2858V15.8237ZM107.707 15.8237H103.573V2.95681H98.2789V0.199618H113V2.95681H107.707V15.8237Z" fill="#4B4BD8"/>
</svg>
