<svg width="23" height="23" viewBox="0 0 23 23" fill="none" xmlns="http://www.w3.org/2000/svg">
<path fill-rule="evenodd" clip-rule="evenodd" d="M5.27691 10.5393C5.5121 7.09861 8.19022 4.5625 11.2336 4.5625C14.277 4.5625 16.9551 7.09861 17.1903 10.5393H19.1938C18.9534 6.09099 15.4814 2.5625 11.2336 2.5625C6.98576 2.5625 3.51376 6.09099 3.27344 10.5393H5.27691ZM0 9.54072H1H2.40625V11.5407H2V12.5283H3.28125V10.5407H5.28125V13.5283V14.5283H4.28125H1H0V13.5283V10.5407V9.54072ZM22.4688 9.54072H21.4688H20.0625V11.5407H20.4688V12.5283H19.1875V10.5407H17.1875V13.5283V13.6798C17.0791 14.9537 16.5712 15.8156 15.9206 16.3917C15.2928 16.9476 14.4676 17.2932 13.582 17.4343V16.0179H11.582H9.95703H7.95703V18.0179V18.9972V20.9972H9.95703H11.582H13.582V19.4526C14.8835 19.299 16.2013 18.8146 17.2465 17.889C18.1752 17.0666 18.8336 15.9443 19.0901 14.5283H21.4688H22.4688V13.5283V10.5407V9.54072ZM9.95703 18.0179H11.582V18.9972H9.95703V18.0179Z" fill="#333333"/>
</svg>
