<svg width="31" height="27" viewBox="0 0 31 27" fill="none" xmlns="http://www.w3.org/2000/svg">
<path fill-rule="evenodd" clip-rule="evenodd" d="M23.6811 3.47576C23.4637 3.25848 23.1375 3.14983 22.9201 3.04119C21.9416 2.60663 20.8543 2.498 19.7671 2.82392C19.1148 3.0412 18.5712 3.25848 17.9188 3.69304C12.7002 6.73496 6.82915 15.8607 3.78492 19.7717C3.56748 20.0976 3.35003 20.3149 3.24131 20.5322C3.02386 20.8581 2.80643 20.9668 2.58899 21.0754C2.1541 21.2927 1.7192 21.1841 1.39303 21.0754C0.958144 20.8581 0.740696 20.6409 0.523251 20.0977C-0.237805 18.2508 0.740699 13.6879 1.39303 11.9497C2.6977 8.58184 4.87216 5.32264 7.80766 3.25849C8.78616 2.49801 9.98211 1.9548 11.0693 1.52024C11.9391 1.19432 12.9176 0.977035 13.7874 0.868396C14.6572 0.759756 15.4182 0.759766 16.288 0.759766C18.0275 0.868405 19.5497 1.19432 21.1805 1.95479C21.3979 2.06343 21.7241 2.17208 21.9416 2.38936C21.9416 2.38936 22.0503 2.49799 22.159 2.49799C22.159 2.49799 22.5939 2.71528 22.9201 2.93256C23.2462 3.14984 23.6811 3.36712 23.6811 3.47576C23.7898 3.47576 23.6811 3.47576 23.6811 3.47576Z" fill="#4C4CD2"/>
<path fill-rule="evenodd" clip-rule="evenodd" d="M29.7718 15.5352C28.4672 18.903 26.2927 22.1622 23.3572 24.2264C22.3787 24.9869 21.1828 25.5301 20.0955 25.9647C19.2257 26.2906 18.2472 26.5079 17.3775 26.6165C16.5077 26.7252 15.7466 26.7252 14.8769 26.7252C13.1373 26.6165 11.6152 26.2906 9.98435 25.5301C9.7669 25.4215 9.44072 25.3128 9.22328 25.0956C9.22328 25.0956 9.11456 24.9869 9.00584 24.9869C9.00584 24.9869 8.57095 24.7696 8.24478 24.5523C7.80989 24.3351 7.48372 24.0091 7.375 24.0091C7.59244 24.1178 7.80989 24.3351 8.13605 24.4437C9.11456 24.8783 10.2018 24.9869 11.289 24.7696C11.8326 24.5523 12.485 24.3351 13.1373 23.9005C18.356 20.8586 24.227 11.7328 27.2712 7.82171C27.4887 7.49579 27.7061 7.27851 27.9236 7.06123C28.141 6.73531 28.3584 6.62667 28.5759 6.51803C29.0108 6.30074 29.4457 6.40938 29.7718 6.51803C30.2067 6.73531 30.4242 6.95258 30.6416 7.49578C31.4027 9.12539 30.4242 13.7969 29.7718 15.5352Z" fill="#4C4CD2"/>
<path fill-rule="evenodd" clip-rule="evenodd" d="M20.7459 15.3186C18.4627 18.2519 15.8534 21.1852 13.3527 22.5975C12.8091 22.9235 12.2655 23.1408 11.7219 23.358C10.7434 23.5753 9.76491 23.4666 8.89513 23.1406C7.37301 22.0542 6.06835 20.642 5.08984 19.0124C6.06835 17.7088 7.37301 15.8619 8.7864 13.9062C9.43873 14.6668 12.1568 17.8174 15.3097 17.8174C17.7016 17.7088 19.5499 16.405 20.7459 15.3186Z" fill="#363636"/>
<path fill-rule="evenodd" clip-rule="evenodd" d="M25.8565 8.47328C24.878 9.77696 23.5734 11.6239 22.16 13.5794C21.5076 12.8189 18.7896 9.66833 15.6366 9.66833C13.5709 9.66833 11.6139 10.972 10.418 12.1671C12.7011 9.23377 15.3105 6.3005 17.7024 4.88818C18.246 4.56226 18.7896 4.34497 19.3332 4.12769C20.3117 3.91041 21.1815 4.01906 22.0513 4.34498C23.5734 5.32274 24.9868 6.73505 25.8565 8.47328Z" fill="#363636"/>
</svg>
