<svg width="21" height="23" viewBox="0 0 21 23" fill="none" xmlns="http://www.w3.org/2000/svg">
<path d="M20.1843 23H17.8537C17.8537 19.0684 14.556 15.8709 10.4998 15.8709C6.44347 15.8709 3.14694 19.0696 3.14694 23H0.816406C0.816406 17.782 5.16168 13.5404 10.5009 13.5404C15.839 13.5404 20.1843 17.782 20.1843 23Z" fill="#333333"/>
<path d="M10.5016 12.783C6.97905 12.783 4.11133 9.91407 4.11133 6.39148C4.11016 2.86772 6.97788 0 10.5016 0C14.0266 0 16.8943 2.86655 16.8943 6.39148C16.8943 9.9164 14.0266 12.783 10.5016 12.783ZM10.5016 2.33053C8.262 2.33053 6.44069 4.15184 6.44069 6.39148C6.44069 8.63112 8.262 10.4524 10.5016 10.4524C12.7424 10.4524 14.5638 8.63112 14.5638 6.39148C14.5638 4.15184 12.7401 2.33053 10.5016 2.33053Z" fill="#333333"/>
</svg>