<svg width="28" height="23" viewBox="0 0 28 23" fill="none" xmlns="http://www.w3.org/2000/svg">
<g clip-path="url(#clip0)">
<path d="M19.1531 22.2987H16.9762C16.9762 18.6235 13.896 15.6346 10.1072 15.6346C6.31846 15.6346 3.23933 18.6246 3.23933 22.2987H1.0625C1.0625 17.421 5.1212 13.4561 10.1083 13.4561C15.0943 13.4561 19.1531 17.421 19.1531 22.2987Z" fill="#333333"/>
<path d="M10.1075 12.749C6.81726 12.749 4.13867 10.0673 4.13867 6.77441C4.13758 3.48048 6.81617 0.799805 10.1075 0.799805C13.4 0.799805 16.0786 3.47939 16.0786 6.77441C16.0786 10.0694 13.4 12.749 10.1075 12.749ZM10.1075 2.97833C8.01561 2.97833 6.31442 4.68085 6.31442 6.77441C6.31442 8.86798 8.01561 10.5705 10.1075 10.5705C12.2006 10.5705 13.9018 8.86798 13.9018 6.77441C13.9018 4.68085 12.1984 2.97833 10.1075 2.97833Z" fill="#333333"/>
</g>
<g clip-path="url(#clip1)">
<path d="M20.3307 13.7521C18.2858 13.7521 16.6211 12.0854 16.6211 10.0389C16.6204 7.99171 18.2851 6.32568 20.3307 6.32568C22.377 6.32568 24.0417 7.99103 24.0417 10.0389C24.0417 12.0867 22.377 13.7521 20.3307 13.7521ZM20.3307 7.67963C19.0306 7.67963 17.9733 8.73773 17.9733 10.0389C17.9733 11.34 19.0306 12.3981 20.3307 12.3981C21.6315 12.3981 22.6888 11.34 22.6888 10.0389C22.6888 8.73773 21.6302 7.67963 20.3307 7.67963Z" fill="#333333"/>
<path fill-rule="evenodd" clip-rule="evenodd" d="M16.6215 10.039C16.6208 7.99184 18.2855 6.32581 20.3311 6.32581C22.3774 6.32581 24.0421 7.99116 24.0421 10.039C24.0421 12.0868 22.3774 13.7522 20.3311 13.7522C18.2862 13.7522 16.6215 12.0855 16.6215 10.039ZM16.3203 10.0391C16.3204 12.2519 18.1198 14.0536 20.3311 14.0536ZM16.3203 10.039C16.3196 7.82533 18.1193 6.02441 20.3311 6.02441C22.5436 6.02441 24.3433 7.82463 24.3433 10.039C24.3433 12.2534 22.5436 14.0536 20.3311 14.0536M20.3311 7.98116C19.1973 7.98116 18.2749 8.90432 18.2749 10.039C18.2749 11.1737 19.1973 12.0969 20.3311 12.0969C21.4656 12.0969 22.388 11.1736 22.388 10.039C22.388 8.90449 21.4644 7.98116 20.3311 7.98116ZM17.9737 10.039C17.9737 8.73786 19.031 7.67976 20.3311 7.67976C21.6306 7.67976 22.6892 8.73786 22.6892 10.039C22.6892 11.3401 21.6319 12.3983 20.3311 12.3983C19.031 12.3983 17.9737 11.3401 17.9737 10.039Z" fill="#333333"/>
<path d="M26.2987 20.6923H24.8612C24.8612 18.2705 22.8272 16.3008 20.3253 16.3008C19.0454 16.3008 17.8881 16.8164 17.063 17.6442L16.0039 16.6736C17.0926 15.56 18.6278 14.8652 20.326 14.8652C23.6185 14.8652 26.2987 17.478 26.2987 20.6923Z" fill="#333333"/>
<path fill-rule="evenodd" clip-rule="evenodd" d="M26.5993 20.9943H24.5594V20.6929C24.5594 18.4469 22.6697 16.6028 20.3246 16.6028C19.1267 16.6028 18.0456 17.0852 17.2756 17.8577L17.0718 18.0622L15.5703 16.6861L15.788 16.4635C16.9317 15.2935 18.5438 14.5645 20.3253 14.5645C23.7769 14.5645 26.5993 17.3049 26.5993 20.6929V20.9943ZM26.2902 20.3915C26.1289 17.3169 23.5144 14.8659 20.3253 14.8659C18.7368 14.8659 17.2909 15.4738 16.2196 16.4639C16.1457 16.5322 16.0736 16.6024 16.0033 16.6743L17.0623 17.6449C17.8875 16.8171 19.0447 16.3014 20.3246 16.3014C22.8266 16.3014 24.8606 18.2711 24.8606 20.6929H26.2981C26.2981 20.5918 26.2954 20.4914 26.2902 20.3915Z" fill="#333333"/>
</g>
<defs>
<clipPath id="clip0">
<rect width="19.7765" height="21.4999" fill="white" transform="translate(0.900391 0.799805)"/>
</clipPath>
<clipPath id="clip1">
<rect width="16.2629" height="16.3761" fill="white" transform="translate(10.4375 5.92383)"/>
</clipPath>
</defs>
</svg>
